<svg xmlns="http://www.w3.org/2000/svg" viewBox="0 0 1920 1920">
  <style>#background {opacity: 0;}</style>
  <defs>
    <clipPath id="facebook">
      <rect x="0" y="0" width="1920" height="1920" />
    </clipPath>
  </defs>
  <g clip-path="url(#facebook)">
          <rect fill="#ffffff" width="1920" height="1920"/>
    <g transform="scale(4.8)">
      <g fill="none" font-family="none" font-size="none" font-weight="none" stroke-miterlimit="10" style="mix-blend-mode:normal" text-anchor="none">
<g fill="#a57878" id="background" opacity="0">
<path d="m10 390v-380h380v380z"/>
</g>
<g fill="#000" id="symbol" stroke="#000">
<g id="logo">
<path d="m201.81 150.01c0.06815 0.03407 0.13629 0.07667 0.20444 0.11074 0.7411 0.40036 1.4481 0.82628 2.1637 1.2607 0.91147 0.55369 1.8314 1.0818 2.7685 1.5844 1.7037 0.91998 3.3818 1.8911 5.0514 2.8707 1.874 1.0989 3.7651 2.1722 5.6732 3.2029 0.39185 0.21296 0.78369 0.42592 1.1755 0.63888 0.49407 0.27259 0.99665 0.54518 1.4907 0.80925 1.0818 0.57925 2.1552 1.167 3.2199 1.7803 0.26407 0.15333 0.53666 0.30666 0.80073 0.45999 1.3715 0.77517 2.7088 1.5759 4.0377 2.4107 0.11926 0.06815 0.11926 0.06815 0.23851 0.14481 0.40888 0.25555 0.80925 0.5111 1.2181 0.76665 0.10222 0.06815 0.20444 0.13629 0.31518 0.20444 1.3204 0.8348 2.7174 1.874 3.0836 3.484 0.11074 0.66443 0.10222 1.3289 0.10222 2.0018v0.37481 1.0307 1.1159 2.1722 1.7718 5.0173 0.27259 0.27259 4.387c0 1.5078 0.00852 3.007 0.00852 4.5147v2.53 2.1466 1.0989 1.0052 0.36629c0 1.397-0.14481 2.5555-1.1415 3.6033-1.1926 1.1244-2.7514 1.8826-4.1655 2.6918-0.07667 0.04259-0.16185 0.0937-0.24703 0.14481-0.36629 0.20444-0.72406 0.40888-1.0904 0.61332-0.46851 0.27259-0.94554 0.54518-1.414 0.81776-2.5044 1.4481-2.5044 1.4481-3.6714 2.0955-0.88591 0.49407-1.7633 0.99665-2.6322 1.5078-1.6526 0.98813-3.3307 1.9422-5.0173 2.8707-0.68999 0.38333-1.38 0.77517-2.0614 1.1585-0.4174 0.23851-0.8348 0.47703-1.2522 0.70702-0.97109 0.53666-1.9252 1.0818-2.8877 1.644-0.6474 0.38333-1.3033 0.74962-1.9592 1.1159-0.63036 0.34925-1.2522 0.70702-1.8655 1.0733-0.63888 0.36629-1.2692 0.7411-1.9166 1.0904-0.08518 0.04259-0.08518 0.04259-0.17037 0.08518-0.72406 0.38333-1.4652 0.6474-2.2914 0.44296-1.0137-0.37481-1.9507-1.0222-2.8792-1.5674-0.80073-0.47703-1.61-0.9285-2.4107-1.38-0.13629-0.06815-0.26407-0.14481-0.40036-0.22148-1.0392-0.58777-2.0955-1.167-3.1518-1.7378-0.66443-0.35777-1.3118-0.72406-1.9677-1.0989-0.62184-0.34925-1.2522-0.69851-1.8826-1.0307-0.80073-0.42592-1.5759-0.86887-2.3511-1.3289-1.3204-0.78369-2.6662-1.5163-4.0122-2.2574-0.34073-0.1874-0.68147-0.37481-1.0222-0.57073-0.68999-0.38333-1.3885-0.75814-2.087-1.1329-0.05111-0.02556-0.10222-0.05111-0.15333-0.08518-0.40888-0.21296-0.81776-0.43444-1.2266-0.65591-8.348-4.4551-8.348-4.4551-9.1658-6.5932-0.17889-0.72406-0.16185-1.4907-0.17037-2.2318 0-0.12778 0-0.24703-0.00852-0.37481 0-0.33222-0.00852-0.66443-0.00852-1.0052 0-0.20444-0.00852-0.4174-0.00852-0.63036-0.03407-2.8792-0.04259-5.7584-0.03407-8.6376 0-0.39185 0.00852-0.79221 0.00852-1.184 0-1.1159 0-2.2233 0.00852-3.3307v-0.21296-0.42592-0.20444-0.21296c0.00852-1.15 0.00852-2.3 0.00852-3.4414 0-1.1926 0.00852-2.3851 0.00852-3.5777 0.00852-0.65591 0.00852-1.3204 0.00852-1.9848 0-0.56221 0-1.1244 0.00852-1.6781v-0.86036-0.9285-0.26407c0.01704-1.2607 0.5111-2.1977 1.397-3.0666 1.4822-1.397 3.3562-2.3766 5.1195-3.3818 0.45147-0.25555 0.90295-0.51962 1.3544-0.79221 0.80073-0.46851 1.61-0.9285 2.4192-1.3715 0.26407-0.14481 0.51962-0.28962 0.78369-0.42592 0.4174-0.23851 0.8348-0.46851 1.2522-0.69851 0.08518-0.04259 0.08518-0.04259 0.17037-0.0937 0.21296-0.11926 0.43444-0.23851 0.65591-0.35777 0.16185-0.0937 0.3237-0.17889 0.48555-0.27259 0.07667-0.04259 0.07667-0.04259 0.16185-0.08518 0.4174-0.23 0.82628-0.45999 1.2437-0.68999 0.28111-0.15333 0.55369-0.30666 0.8348-0.45999 0.61332-0.33222 1.2181-0.68147 1.8229-1.0392 0.8348-0.48555 1.6781-0.96258 2.5385-1.4226 0.9285-0.48555 1.8485-0.99665 2.7514-1.5248 0.28962-0.17037 0.57925-0.33222 0.86887-0.49407 0.75814-0.43444 1.5163-0.86887 2.2659-1.3118 0.47703-0.28111 0.96258-0.56221 1.4481-0.82628 0.04259-0.02556 0.08518-0.05111 0.12778-0.07667 0.0937-0.05111 0.17889-0.0937 0.27259-0.14481 0.93702-0.51962 1.857-1.0818 2.7685-1.6611 0.33222-0.20444 0.67295-0.4174 1.0052-0.62184 0.12778-0.06815 0.12778-0.06815 0.24703-0.14481 1.0989-0.57073 2.104-0.21296 3.1262 0.34073zm-2.4618 2.9048c-0.11926 0.06815-0.11926 0.06815-0.24703 0.14481-0.08518 0.05111-0.17889 0.10222-0.26407 0.15333-0.04259 0.02556-0.08518 0.05111-0.12778 0.07667-0.27259 0.15333-0.54518 0.31518-0.80925 0.47703-1.2266 0.73258-2.4618 1.4396-3.714 2.1296-0.22148 0.12778-0.44296 0.24703-0.66443 0.37481-0.04259 0.02556-0.0937 0.05111-0.13629 0.07667-0.82628 0.45999-1.644 0.93702-2.4618 1.414-0.50258 0.29814-1.0137 0.58777-1.5163 0.87739-0.70702 0.40888-1.414 0.81776-2.1211 1.2352-0.50258 0.29814-0.99665 0.58777-1.4992 0.87739-0.36629 0.21296-0.72406 0.42592-1.0904 0.63888-0.05111 0.02556-0.10222 0.05963-0.15333 0.08518-0.3237 0.19592-0.65591 0.38333-0.97961 0.57073-0.10222 0.06815-0.20444 0.12778-0.31518 0.1874-0.57925 0.34073-1.1585 0.68147-1.7292 1.0392-0.44296 0.27259-0.89443 0.53666-1.3544 0.80073-0.08518 0.05111-0.17037 0.10222-0.25555 0.15333-1.3885 0.80925-2.777 1.61-4.174 2.4022-0.63888 0.36629-1.2778 0.7411-1.9166 1.1159-0.45147 0.26407-0.91147 0.51962-1.3629 0.77517-0.07667 0.04259-0.07667 0.04259-0.14481 0.08518-0.23 0.11926-0.45999 0.24703-0.68999 0.37481-0.94554 0.46851-0.94554 0.46851-1.5844 1.2437-0.12778 0.50258-0.0937 1.0307-0.0937 1.5503v0.36629 1.0052 1.0818 2.1211 2.4618 4.4125 4.2677 0.26407 0.26407c0 1.627 0 3.2455 0.00852 4.8725v1.7207 2.0955 1.0648 0.97961 0.35777c-0.06815 1.0392-0.06815 1.0392 0.23 1.9933 0.28962 0.21296 0.58777 0.40036 0.88591 0.59629 0.06815 0.04259 0.14481 0.08518 0.21296 0.12778 0.9285 0.57925 1.874 1.15 2.8111 1.7122 0.23851 0.14481 0.47703 0.28962 0.71554 0.43444 1.0052 0.61332 2.0188 1.2096 3.0496 1.7803 0.61332 0.33222 1.2096 0.68147 1.8144 1.0392 0.69851 0.40888 1.414 0.80925 2.1296 1.1926 0.80925 0.42592 1.6014 0.87739 2.3851 1.3374 0.61332 0.35777 1.2266 0.70702 1.8485 1.0563 0.17889 0.10222 0.35777 0.19592 0.53666 0.29814 0.04259 0.02556 0.08518 0.05111 0.13629 0.07667 0.42592 0.23851 0.84332 0.47703 1.2692 0.72406 0.63888 0.35777 1.2778 0.72406 1.9166 1.0818 0.06815 0.03407 0.06815 0.03407 0.13629 0.07667 0.52814 0.29814 1.0563 0.58777 1.5844 0.87739 1.3118 0.72406 2.6151 1.4566 3.9014 2.2233 1.0052 0.58777 2.0103 1.1755 3.0325 1.7548 0.19592 0.11074 0.39185 0.22148 0.57925 0.33222 0.11926 0.06815 0.23 0.12778 0.34073 0.19592 0.05111 0.02556 0.10222 0.05963 0.14481 0.08518 0.28962 0.16185 0.51962 0.23 0.84332 0.16185 0.34925-0.12778 0.65591-0.3237 0.97109-0.51962 0.23-0.13629 0.45999-0.27259 0.68147-0.40036 0.05111-0.03407 0.0937-0.05963 0.14481-0.08518 0.46851-0.28111 0.95406-0.54518 1.4396-0.80073 0.77517-0.4174 1.5333-0.85184 2.2829-1.2948 0.6474-0.37481 1.2948-0.7411 1.9507-1.1074 0.68147-0.37481 1.3544-0.74962 2.0274-1.1329 0.72406-0.4174 1.4481-0.81776 2.1807-1.2266 0.76665-0.42592 1.5333-0.86887 2.2914-1.3118 0.61332-0.35777 1.2352-0.69851 1.857-1.0222 0.85184-0.45147 1.6696-0.93702 2.4959-1.4481 0.6474-0.39185 1.2948-0.77517 1.9677-1.1415 1.0392-0.55369 2.0444-1.1585 3.0496-1.7718 0.10222-0.05963 0.19592-0.11926 0.29814-0.17889 0.06815-0.05111 0.06815-0.05111 0.14481-0.0937 1.7122-1.0392 3.4159-2.0785 5.1792-3.024 0.05963-0.03407 0.12778-0.06815 0.19592-0.10222 0.05963-0.03407 0.11074-0.06815 0.17037-0.0937 0.16185-0.08518 0.16185-0.08518 0.31518-0.25555 0.02556-0.22148 0.02556-0.22148 0.02556-0.47703v-0.15333-0.50258-0.36629-0.99665-1.0733-2.1126-2.4618c0-1.4652-0.00852-2.9303-0.00852-4.3955v-4.2592-0.26407-0.26407-4.847-1.7122-2.0955-1.0648-0.97961-0.34925c0-0.59629-0.01704-1.1926-0.05111-1.7889 0-0.05111-0.00852-0.11074-0.00852-0.16185-0.04259-0.66443-0.21296-1.1585-0.71554-1.61-0.43444-0.37481-0.90295-0.63888-1.4055-0.91147-0.14481-0.07667-0.28111-0.15333-0.42592-0.23-0.0937-0.05111-0.19592-0.11074-0.28962-0.16185-0.52814-0.28962-1.0478-0.58777-1.5674-0.89443-0.14481-0.07667-0.28111-0.16185-0.42592-0.23851-0.08518-0.05111-0.17889-0.11074-0.27259-0.16185-1.0818-0.62184-2.1637-1.2437-3.254-1.8485-1.0563-0.58777-2.104-1.1926-3.1518-1.8059-1.0904-0.63888-2.1892-1.2692-3.2881-1.8826-0.31518-0.17889-0.63036-0.34925-0.94554-0.52814-0.91147-0.5111-1.8229-1.0137-2.7344-1.5163-1.5674-0.85184-3.1262-1.7122-4.6766-2.5896-0.47703-0.27259-0.94554-0.53666-1.4226-0.80073-0.99665-0.55369-1.9933-1.1244-2.9814-1.6866-0.06815-0.04259-0.14481-0.08518-0.22148-0.12778-0.22148-0.12778-0.43444-0.25555-0.65591-0.38333-0.05963-0.03407-0.12778-0.06815-0.19592-0.11074-0.05963-0.03407-0.11926-0.06815-0.1874-0.11074-0.05963-0.03407-0.11926-0.06815-0.17889-0.10222-0.11926-0.06815-0.23851-0.14481-0.35777-0.23-0.05963-0.03407-0.11926-0.07667-0.17889-0.11926-0.05111-0.03407-0.10222-0.06815-0.15333-0.10222-0.39185-0.1874-0.67295-0.06815-1.0222 0.13629z"/>
</g>
</g>
<g fill="#000" id="text">
<path d="m80 249.64 0.28622-17.555 1.9558-0.14992 19.456 14.713-0.2794-14.87 2.3988 0.28622-0.31348 17.752-2.1126-0.25214-18.993-14.406-0.28622 14.74zm48.841-17.323 0.2317 2.2488-18.788-0.57243-0.31348 5.0565 13.2-0.49066 0.25896 1.8536-13.534-0.05452-0.51792 7.5575 19.769-0.34073-0.07496 2.1194-22.168-0.05452 0.6951-16.519 1.2675-0.90635zm13.193 18.304-8.6819-0.77688-3.4074-4.1978 0.12948-9.2544 3.789-4.3273 9.7995-0.82458 9.0704 1.104 3.0121 4.2796-0.43614 8.8932-3.271 4.2796zm0.87909-17.657-7.4008 0.9268-2.9644 3.9457 0.38844 7.394 1.7514 2.7327 6.6784 0.82458 9.0976-1.1312 1.9831-2.8349 0.20444-8.4298-1.8536-2.4192zm10.563-0.51792 23.354-0.66784-0.05452 2.2148h-11.183l0.77688 15.701-2.685 0.38162-0.10222-16.083-10.154 0.12948zm36.268 18.175-8.6887-0.77688-3.4005-4.1978 0.12948-9.2544 3.789-4.3273 9.7927-0.82458 9.0704 1.104 3.0189 4.2796-0.43614 8.8932-3.2779 4.2796zm0.87228-17.657-7.394 0.9268-2.9644 3.9457 0.38844 7.394 1.7514 2.7327 6.6716 0.82458 9.1044-1.1312 1.9831-2.8349 0.20444-8.4298-1.8536-2.4192zm26.421 17.657-8.6887-0.77688-3.4005-4.1978 0.12948-9.2544 3.789-4.3273 9.7927-0.82458 9.0772 1.104 3.0121 4.2796-0.43614 8.8932-3.2779 4.2796zm0.8791-17.657-7.4008 0.9268-2.9644 3.9457 0.38844 7.394 1.7514 2.7327 6.6784 0.82458 9.0976-1.1312 1.9831-2.8349 0.20444-8.4298-1.8536-2.4192zm15.435 15.415-0.30666-16.444 2.8349 0.17718-0.62014 15.694 17.473-1.0018 0.43614 2.8622-18.788 0.12948zm24.226-8.0686 14.897-8.5047 1.3152 2.2897-11.108 5.5676 13.766 9.1249-2.0103 1.7037-13.561-9.9767-3.4005 1.7309-0.53836 7.5984-2.2216-0.30666 0.59288-17.425 2.8622 0.05452zm37.297 9.3566-16.471 0.07496 0.12948-1.9558 7.0328 0.02044-0.40888-13.527-6.5966 0.15674-0.15674-2.2216 16.471-0.17718-0.21126 1.9831-7.2917 0.184 0.9268 13.629 6.3172 0.02726zm1.7786-17.221 23.347-0.66784-0.0477 2.2148h-11.19l0.77688 15.701-2.685 0.38162-0.10222-16.083-10.154 0.12948z"/>
</g>
</g>
    </g>
  </g>
</svg>